<?xml version="1.0" encoding="utf-8"?>
<!-- Generator: Adobe Illustrator 24.1.2, SVG Export Plug-In . SVG Version: 6.00 Build 0)  -->
<svg version="1.1" id="Layer_1" xmlns="http://www.w3.org/2000/svg" xmlns:xlink="http://www.w3.org/1999/xlink" x="0px" y="0px"
	 viewBox="0 0 356.2 112.1" style="enable-background:new 0 0 356.2 112.1;" xml:space="preserve">
<style type="text/css">
	.st0{fill:#231F20;}
</style>
<path class="st0" d="M175.4,0.2c11.5,0.3,20.5,0.6,32.7,3c7,1.4,16.1,3.3,26.1,8.3c5.8,2.9,9.2,5.1,13.3,8.3
	c3.4,2.7,3.9,4.5,7.1,6.2c4.7,2.4,6.1,2.6,9.7,5.3c3.4,2.4,3.3,2.6,6.6,4.8c3.5,2.3,5.2,0.6,10.2,2.6c4.8,2,4.5,4.1,9.3,6.2
	c3.8,1.6,7.1,1.7,10.2,1.7c7,0.1,7.8-1.8,14.6-2.3c0.9-0.1,5.8,0.5,15.5,1.7c12,1.5,12.4,1.6,14.1,1.3c2.4-0.4,4.5-1.2,6.6,0
	c2,1.1,2.8,3.2,3.6,5.3c1.7,4.5,1.3,8.5,0.9,10.6c-0.3,1.7-0.9,5.2-3.5,8.4c-1.6,2-3.2,3.1-4,3.5c-5.6,3.8-9.7,10.9-17.6,24.4
	c-3.5,6.1-4.1,7.6-6.6,9.3c-3.9,2.6-8.7,2.9-12.8,3.1c-6.5,0.4-8.2,0.1-9.3-0.4c-0.5-0.3-4-2.1-5-5.7c-0.8-2.5,0.4-3.6-0.8-5.2
	c-1.1-1.5-6.6-8.4-7.5-9.5c-1.1-1.3-6.1-0.8-8.3-1.2c-3.9-0.7-6.3-5.1-8.3-9c-3.7-7-2.2-10.2-5.5-12.3c-0.5-0.3-1.1-0.6-8.4-1.1
	c-8.5-0.6-8.8-0.4-10.6-1c-4.4-1.6-7.2-4.8-9-6.9c-2.8-3.2-4.1-6.2-4.4-6.9c-5-10.3-27.5-16.6-31-17.6c-8-2.2-27.1-7.3-50.5-1.3
	c-19.2,4.9-32.6,15.1-35.6,19c-1.1,1.5-2.4,2.8-4.8,5.6c-2.9,3.2-3.7,4-5,4.6c-2.2,1.1-4.3,1.2-6.5,1.2c-5,0.1-5.6-1.4-8.2-0.7
	c-3,0.8-5.4,3.8-6.3,6.5c-0.6,2-0.1,2.7-0.9,8.2c-0.4,2.7-0.6,3-0.7,3.2c-1.4,2.2-3.9,1.7-8.2,3.6c-2.3,1-3.7,1.7-5,3.1
	c-1.5,1.7-2,4.4-3.1,9.7c-0.7,3.5-0.6,4.3-1.5,5.6c-1.4,2.3-3.6,3.4-5,4c-2.7,1.3-5.1,1.4-9.7,1.5c-3.6,0.1-6.8,0.2-10.9-0.8
	c-2.3-0.6-4.1-1-5.9-2.5c-2.5-2-3.6-4.6-4-5.4c-0.9-2.3-0.3-2.5-1.2-4.3c-1.1-2.2-2.4-2.8-5.3-5.6C23,88.5,23.2,88.3,21,86
	c-5.1-5.2-6.4-4.8-10.3-8.9c-2-2.1-4.1-4.4-5.6-8.1c-1.3-3.2-0.5-3.6-2.1-7.1c-1.6-3.7-3.3-5.1-2.8-7.5c0.1-0.7,0.2-1.6,0.7-3.5
	c0.7-2.8,1.2-4.6,2.3-6.3C5,41.5,4,42.3,5.5,41c1.7-1.4,6.6-1,8.4-0.8c6.4,0.9,13.2,1.1,17.2,0.8c6.4-0.4,6.9-2.2,13.2-2.1
	c6,0,8,0.3,8,0.3c3.2,0.4,4,0.8,5.6,0.3c2.7-0.9,2.9-3.1,5.3-4.9c2.8-2,5.4-1.1,9.3-1.4c4.2-0.3,5.6-1.6,16.9-7.6
	c0,0,4.4-2.3,13.5-6.8c5.2-2.6,13.3-6.6,22.9-10.4c8.9-3.5,13.7-5.4,20.1-6.8C154.8-0.3,161.8-0.1,175.4,0.2z"/>
</svg>
