<?xml version="1.0" encoding="utf-8"?>
<!-- Generator: Adobe Illustrator 24.1.2, SVG Export Plug-In . SVG Version: 6.00 Build 0)  -->
<svg version="1.1" id="Layer_1" xmlns:shaper="http://www.shapertools.com/namespaces/shaper"
	 xmlns="http://www.w3.org/2000/svg" xmlns:xlink="http://www.w3.org/1999/xlink" x="0px" y="0px" viewBox="0 0 288 2448"
	 style="enable-background:new 0 0 288 2448;" xml:space="preserve">
<path d="M162,2160h4.5c67.1,0,121.5-54.4,121.5-121.5v-1629c0-67.1-54.4-121.5-121.5-121.5H162V0h-36v288h-4.5
	C54.4,288,0,342.4,0,409.5V2034c0,69.6,56.4,126,126,126v288h36V2160z M121.5,2124c-47.2,0-85.5-38.3-85.5-85.5v-1629
	c0-47.2,38.3-85.5,85.5-85.5h45c47.2,0,85.5,38.3,85.5,85.5v1629c0,47.2-38.3,85.5-85.5,85.5H121.5z"/>
</svg>
