<?xml version="1.0" encoding="utf-8"?>
<!-- Generator: Adobe Illustrator 24.1.2, SVG Export Plug-In . SVG Version: 6.00 Build 0)  -->
<svg version="1.1" id="Layer_1" shaper:fusionaddin="version:1.9.0" xmlns:shaper="http://www.shapertools.com/namespaces/shaper"
	 xmlns="http://www.w3.org/2000/svg" xmlns:xlink="http://www.w3.org/1999/xlink" x="0px" y="0px" viewBox="0 0 129.6 2592"
	 style="enable-background:new 0 0 129.6 2592;" xml:space="preserve">
<path shaper:cutDepth="0.508cm" d="M113.4,1253.1c-1.3-1.5-2.7-3-4.2-4.3l0,0l-0.4-0.5l-0.4-0.5l-0.4-0.5l-0.3-0.5l-0.3-0.5
	l-0.3-0.4l-0.3-0.4l-0.2-0.4l-0.2-0.4l-0.2-0.4l-0.2-0.4l-0.1-0.4l-0.1-0.3l-0.1-0.3l-0.1-0.3l0-0.3l0-0.3l0-0.3l0-0.3l0-0.3
	l0.1-0.3l0.1-0.3l0.1-0.3l0.1-0.3l0.3-0.5l0.3-0.5l0.4-0.5l0.4-0.4l0.5-0.4l0.5-0.4l0.5-0.4l0.6-0.3l0.6-0.3l0.6-0.3l0.6-0.2
	l0.7-0.2l0.7-0.2l0.7-0.2l0.8-0.1l0.8-0.1l0.9-0.1l0.9-0.1l1-0.1l1.1,0v-3.7H82.4V0h-36v1231.2H10.8v3.7l0,0l1.1,0l1,0.1l0.9,0.1
	l0.9,0.1l0.8,0.1l0.8,0.1l0.7,0.2l0.7,0.2l0.7,0.2l0.6,0.2l0.6,0.3l0.6,0.3l0.6,0.3l0.5,0.4l0.5,0.4l0.5,0.4l0.4,0.4l0.4,0.5
	l0.3,0.5l0.3,0.5l0.1,0.3l0.1,0.3l0.1,0.3l0.1,0.3l0,0.3l0,0.3l0,0.3l0,0.3l0,0.3l-0.1,0.3l-0.1,0.3l-0.1,0.3l-0.1,0.4l-0.2,0.4
	l-0.2,0.4l-0.2,0.4l-0.2,0.4l-0.3,0.4l-0.3,0.4l-0.3,0.5l-0.3,0.5l-0.4,0.5l-0.4,0.5l-0.4,0.5c-1.5,1.4-3,2.9-4.3,4.5l0,0l0,0.4
	l0,0.4l0,0.4l0,0.4l0,0.4l0,0.3l-0.1,0.3l-0.1,0.3l-0.1,0.3l-0.1,0.3l-0.2,0.5l-0.3,0.5l-0.3,0.4l-0.4,0.4l-0.4,0.4l-0.5,0.4
	l-0.3,0.2l-0.3,0.2l-0.3,0.2l-0.3,0.2l-0.3,0.2l-0.4,0.2l-0.4,0.2l-0.4,0.1l-0.4,0.1l-0.5,0.1c-0.7,1.2-1.5,2.4-2.1,3.6l0,0l0.1,0.5
	l0,0.4l0,0.4l0,0.4l0,0.4l0,0.4l0,0.4l0,0.3l0,0.3l-0.1,0.3l-0.1,0.6l-0.2,0.5l-0.2,0.5l-0.2,0.5l-0.3,0.5l-0.3,0.4l-0.4,0.4
	l-0.2,0.2l-0.2,0.2l-0.3,0.2l-0.3,0.2l-0.3,0.2l-0.3,0.2l-0.3,0.2l-0.4,0.2c-0.6,1.6-1.1,3.1-1.6,4.7l0,0l0.2,0.4l0.1,0.4l0.1,0.3
	l0.1,0.3l0.1,0.3l0.1,0.3l0.1,0.3l0.1,0.3l0.1,0.6l0,0.5l0,0.5l-0.1,0.5l-0.1,0.5l-0.2,0.5l-0.2,0.5l-0.3,0.5l-0.2,0.2l-0.2,0.2
	l-0.2,0.3l-0.2,0.3l-0.2,0.3l-0.3,0.3l-0.3,0.3l-0.3,0.3c-0.9,6.1-0.9,12.4,0,18.5l0,0l0.3,0.3l0.3,0.3l0.3,0.3l0.2,0.3l0.2,0.3
	l0.2,0.3l0.2,0.2l0.2,0.2l0.3,0.5l0.2,0.5l0.2,0.5l0.1,0.5l0.1,0.5l0,0.5l0,0.5l-0.1,0.6l-0.1,0.3l-0.1,0.3l-0.1,0.3l-0.1,0.3
	l-0.1,0.3l-0.1,0.3l-0.1,0.4l-0.2,0.4c0.5,1.6,1,3.2,1.6,4.7l0,0l0.4,0.2l0.3,0.2l0.3,0.2l0.3,0.2l0.3,0.2l0.3,0.2l0.2,0.2l0.2,0.2
	l0.4,0.4l0.3,0.4l0.3,0.5l0.2,0.5l0.2,0.5l0.2,0.5l0.1,0.6l0.1,0.3l0,0.3l0,0.3l0,0.4l0,0.4l0,0.4l0,0.4l0,0.4l0,0.4l-0.1,0.5
	c0.7,1.2,1.4,2.4,2.1,3.6l0,0l0.5,0.1l0.4,0.1l0.4,0.1l0.4,0.2l0.4,0.2l0.3,0.2l0.3,0.2l0.3,0.2l0.3,0.2l0.3,0.2l0.5,0.4l0.4,0.4
	l0.4,0.4l0.3,0.4l0.3,0.5l0.2,0.5l0.1,0.3l0.1,0.3l0.1,0.3l0.1,0.3l0,0.3l0,0.4l0,0.4l0,0.4l0,0.4l0,0.4c1.4,1.6,2.8,3.1,4.3,4.5
	l0,0l0.4,0.5l0.4,0.5l0.4,0.5l0.3,0.5l0.3,0.5l0.3,0.4l0.3,0.4l0.2,0.4l0.2,0.4l0.2,0.4l0.2,0.4l0.1,0.4l0.1,0.3l0.1,0.3l0.1,0.3
	l0,0.3l0,0.3l0,0.3l0,0.3l0,0.3l-0.1,0.3l-0.1,0.3l-0.1,0.3l-0.1,0.3l-0.3,0.5l-0.3,0.5l-0.4,0.5l-0.4,0.4l-0.5,0.4l-0.5,0.4
	l-0.5,0.4l-0.6,0.3l-0.6,0.3l-0.6,0.3l-0.6,0.2l-0.7,0.2l-0.7,0.2l-0.7,0.2l-0.8,0.1l-0.8,0.1l-0.9,0.1l-0.9,0.1l-1,0.1l-1.1,0l0,5
	l35.6,0V2592h36V1362l36.4-0.2v-4.6l0,0l-1.1,0l-1-0.1l-0.9-0.1l-0.9-0.1l-0.8-0.1l-0.8-0.1l-0.7-0.2l-0.7-0.2l-0.7-0.2l-0.6-0.2
	l-0.6-0.3l-0.6-0.3l-0.6-0.3l-0.5-0.4l-0.5-0.4l-0.5-0.4l-0.4-0.4l-0.4-0.5l-0.3-0.5l-0.3-0.5l-0.1-0.3l-0.1-0.3l-0.1-0.3l-0.1-0.3
	l0-0.3l0-0.3l0-0.3l0-0.3l0-0.3l0.1-0.3l0.1-0.3l0.1-0.3l0.1-0.4l0.2-0.4l0.2-0.4l0.2-0.4l0.2-0.4l0.3-0.4l0.3-0.4l0.3-0.5l0.3-0.5
	l0.4-0.5l0.4-0.5l0.4-0.5c1.5-1.4,3-2.9,4.3-4.5l0,0l0-0.4l0-0.4l0-0.4l0-0.4l0-0.4l0-0.3l0.1-0.3l0.1-0.3l0.1-0.3l0.1-0.3l0.2-0.5
	l0.3-0.5l0.3-0.4l0.4-0.4l0.4-0.4l0.5-0.4l0.3-0.2l0.3-0.2l0.3-0.2l0.3-0.2l0.3-0.2l0.4-0.2l0.4-0.2l0.4-0.1l0.4-0.1l0.5-0.1
	c0.7-1.2,1.5-2.4,2.1-3.6l0,0l-0.1-0.5l0-0.4l0-0.4l0-0.4l0-0.4l0-0.4l0-0.4l0-0.3l0-0.3l0.1-0.3l0.1-0.6l0.2-0.5l0.2-0.5l0.2-0.5
	l0.3-0.5l0.3-0.4l0.4-0.4l0.2-0.2l0.2-0.2l0.3-0.2l0.3-0.2l0.3-0.2l0.3-0.2l0.3-0.2l0.4-0.2c0.6-1.6,1.1-3.1,1.6-4.7l0,0l-0.2-0.4
	l-0.1-0.4l-0.1-0.3l-0.1-0.3l-0.1-0.3l-0.1-0.3l-0.1-0.3l-0.1-0.3l-0.1-0.6l0-0.5l0-0.5l0.1-0.5l0.1-0.5l0.2-0.5l0.2-0.5l0.3-0.5
	l0.2-0.2l0.2-0.2l0.2-0.3l0.2-0.3l0.2-0.3l0.3-0.3l0.3-0.3l0.3-0.3c0.9-6.2,0.9-12.5,0-18.7l0,0l-0.3-0.3l-0.3-0.3l-0.3-0.3
	l-0.2-0.3l-0.2-0.3l-0.2-0.3l-0.2-0.2l-0.2-0.2l-0.3-0.5l-0.2-0.5l-0.2-0.5l-0.1-0.5l-0.1-0.5l0-0.5l0-0.5l0.1-0.6l0-0.3l0.1-0.3
	l0.1-0.3l0.1-0.3l0.1-0.3l0.1-0.3l0.1-0.4l0.2-0.4c-0.5-1.6-1-3.2-1.6-4.7l0,0l-0.4-0.2l-0.3-0.2l-0.3-0.2l-0.3-0.2l-0.3-0.2
	l-0.3-0.2l-0.2-0.2l-0.2-0.2l-0.4-0.4l-0.3-0.4l-0.3-0.4l-0.2-0.5l-0.2-0.5l-0.2-0.5l-0.1-0.6l-0.1-0.3l0-0.3l0-0.3l0-0.4l0-0.4
	l0-0.4l0-0.4l0-0.4l0-0.4l0.1-0.5c-0.7-1.2-1.4-2.4-2.1-3.6l0,0l-0.5-0.1l-0.4-0.1l-0.4-0.1l-0.4-0.2l-0.4-0.2l-0.3-0.2l-0.3-0.2
	l-0.3-0.2l-0.3-0.2l-0.3-0.2l-0.5-0.4l-0.4-0.4l-0.4-0.4l-0.3-0.4l-0.3-0.5l-0.2-0.5l-0.1-0.3l-0.1-0.3l-0.1-0.3l-0.1-0.3l0-0.3
	l0-0.4l0-0.4l0-0.4l0-0.4L113.4,1253.1z"/>
</svg>
